<?xml version="1.0" encoding="UTF-8" standalone="no"?>
<!-- Created with Inkscape (http://www.inkscape.org/) -->
<svg
   xmlns:dc="http://purl.org/dc/elements/1.1/"
   xmlns:cc="http://web.resource.org/cc/"
   xmlns:rdf="http://www.w3.org/1999/02/22-rdf-syntax-ns#"
   xmlns:svg="http://www.w3.org/2000/svg"
   xmlns="http://www.w3.org/2000/svg"
   xmlns:xlink="http://www.w3.org/1999/xlink"
   xmlns:sodipodi="http://sodipodi.sourceforge.net/DTD/sodipodi-0.dtd"
   xmlns:inkscape="http://www.inkscape.org/namespaces/inkscape"
   version="1.0"
   width="900"
   height="1200"
   id="svg2848"
   sodipodi:version="0.32"
   inkscape:version="0.45"
   sodipodi:docname="Wikimedia_Community_Logo-Commons_Cabal.svg"
   sodipodi:docbase="/home/fizyk/anizo/wiki/SVG/promocja"
   inkscape:output_extension="org.inkscape.output.svg.inkscape"
   sodipodi:modified="true">
  <metadata
     id="metadata2260">
    <rdf:RDF>
      <cc:Work
         rdf:about="">
        <dc:format>image/svg+xml</dc:format>
        <dc:type
           rdf:resource="http://purl.org/dc/dcmitype/StillImage" />
      </cc:Work>
    </rdf:RDF>
  </metadata>
  <sodipodi:namedview
     inkscape:window-height="670"
     inkscape:window-width="958"
     inkscape:pageshadow="2"
     inkscape:pageopacity="0.0"
     guidetolerance="10.0"
     gridtolerance="10.0"
     objecttolerance="10.0"
     borderopacity="1.0"
     bordercolor="#666666"
     pagecolor="#ffffff"
     id="base"
     inkscape:zoom="0.3825"
     inkscape:cx="450"
     inkscape:cy="600"
     inkscape:window-x="0"
     inkscape:window-y="0"
     inkscape:current-layer="svg2848"
     showguides="true"
     inkscape:guide-bbox="true"
     height="1200px"
     width="900px" />
  <defs
     id="defs2850">
    <marker
       inkscape:stockid="Arrow1Lend"
       orient="auto"
       refY="0.0"
       refX="0.0"
       id="Arrow1Lend"
       style="overflow:visible;">
      <path
         id="path4131"
         d="M 0.0,0.0 L 5.0,-5.0 L -12.5,0.0 L 5.0,5.0 L 0.0,0.0 z "
         style="fill-rule:evenodd;stroke:#000000;stroke-width:1.0pt;marker-start:none;"
         transform="scale(0.8) rotate(180) translate(12.5,0)" />
    </marker>
    <marker
       inkscape:stockid="Arrow2Lend"
       orient="auto"
       refY="0.0"
       refX="0.0"
       id="Arrow2Lend"
       style="overflow:visible;">
      <path
         id="path4113"
         style="font-size:12.0;fill-rule:evenodd;stroke-width:0.62500000;stroke-linejoin:round;"
         d="M 8.7185878,4.0337352 L -2.2072895,0.016013256 L 8.7185884,-4.0017078 C 6.9730900,-1.6296469 6.9831476,1.6157441 8.7185878,4.0337352 z "
         transform="scale(1.1) rotate(180) translate(1,0)" />
    </marker>
    <clipPath
       id="boundary">
      <circle
         id="circle2011"
         r="298"
         cx="0"
         cy="0"
         sodipodi:cx="0"
         sodipodi:cy="0"
         sodipodi:rx="298"
         sodipodi:ry="298" />
    </clipPath>
  </defs>
  <g
     style="fill:#666"
     id="g2048"
     transform="translate(-614.2857,287.7142)">
    <g
       transform="matrix(0.111111,0,0,-0.111111,-370.5556,415)"
       id="g2050">
      <use
         height="900"
         width="900"
         y="0"
         x="0"
         xlink:href="#W"
         id="use2052" />
      <use
         height="900"
         width="900"
         y="0"
         xlink:href="#I"
         x="1440"
         id="use2054" />
      <use
         height="900"
         width="900"
         y="0"
         xlink:href="#K"
         x="1860"
         id="use2056" />
      <use
         height="900"
         width="900"
         y="0"
         xlink:href="#I"
         x="2680"
         id="use2058" />
      <use
         height="900"
         width="900"
         y="0"
         xlink:href="#M"
         x="3100"
         id="use2060" />
      <use
         height="900"
         width="900"
         y="0"
         xlink:href="#E"
         x="4080"
         id="use2062" />
      <use
         height="900"
         width="900"
         y="0"
         xlink:href="#D"
         x="4780"
         id="use2064" />
      <use
         height="900"
         width="900"
         y="0"
         xlink:href="#I"
         x="5610"
         id="use2066" />
      <use
         height="900"
         width="900"
         y="0"
         xlink:href="#A"
         x="5890"
         id="use2068" />
    </g>
    <g
       transform="matrix(0.111111,0,0,-0.111111,-325.5556,515)"
       id="g2070">
      <use
         height="900"
         width="900"
         y="0"
         x="0"
         xlink:href="#C"
         id="use2072" />
      <use
         height="900"
         width="900"
         y="0"
         xlink:href="#O"
         x="768"
         id="use2074" />
      <use
         height="900"
         width="900"
         y="0"
         xlink:href="#M"
         x="1686"
         id="use2076" />
      <use
         height="900"
         width="900"
         y="0"
         xlink:href="#M"
         x="2666"
         id="use2078" />
      <use
         height="900"
         width="900"
         y="0"
         xlink:href="#O"
         x="3574"
         id="use2080" />
      <use
         height="900"
         width="900"
         y="0"
         xlink:href="#N"
         x="4492"
         id="use2082" />
      <use
         height="900"
         width="900"
         y="0"
         xlink:href="#S"
         x="5357"
         id="use2084" />
    </g>
  </g>
  <path
     d="M 867.8125,571.0768 L 780.0625,621.7018 C 792.9694,658.19052 800,697.43524 800,738.3268 C 800,914.54216 669.52928,1060.4049 500,1084.7018 L 500,1185.5768 C 724.90248,1160.6839 899.99998,969.83044 900,738.3268 C 900,679.22688 888.5516,622.79344 867.8125,571.0768 z "
     style="opacity:1;fill:#006699;fill-opacity:1;stroke:none;stroke-width:10;stroke-linecap:round;stroke-linejoin:round;stroke-miterlimit:4;stroke-dasharray:none;stroke-opacity:1"
     id="path2970" />
  <path
     d="M 32.1875,571.0768 C 11.448392,622.79344 0,679.22688 0,738.3268 C 0,969.83044 175.0975,1160.6839 400,1185.5768 L 400,1084.7018 C 230.47074,1060.4049 100,914.54218 100,738.3268 C 100,697.43524 107.03061,658.19052 119.9375,621.7018 L 32.1875,571.0768 z "
     style="opacity:1;fill:#006699;fill-opacity:1;stroke:none;stroke-width:10;stroke-linecap:round;stroke-linejoin:round;stroke-miterlimit:4;stroke-dasharray:none;stroke-opacity:1"
     id="path2968" />
  <path
     d="M 420.03053,677.63258 C 412.69142,681.26856 406.29172,686.09818 400.95083,691.77208 C 403.61144,691.82331 406.28749,691.70411 408.96548,691.4031 C 412.05693,686.42178 415.76047,681.79031 420.03053,677.63258 z M 426.35663,674.88849 C 432.0563,674.61965 437.721,675.00794 443.239,676.04627 C 445.14303,674.33982 446.92078,672.51495 448.57957,670.60674 C 441.15455,670.75822 433.65474,672.14818 426.35663,674.88849 z M 422.85606,681.07604 C 419.91124,683.9723 417.26288,687.11232 414.91774,690.44388 C 418.47584,689.68333 422.01421,688.5869 425.49395,687.15739 L 422.85606,681.07604 z M 426.98462,679.30051 L 429.59459,685.31741 C 432.79754,683.72461 435.79959,681.87261 438.59912,679.81937 C 434.7749,679.32174 430.88885,679.13938 426.98462,679.30051 z M 454.2839,670.73475 C 452.51578,673.01637 450.59316,675.19743 448.5202,677.24572 C 458.68602,679.9507 468.19827,684.83892 476.32034,691.60917 C 479.33369,687.96249 482.05848,684.10945 484.4889,680.09009 C 475.34284,674.65619 464.97515,671.42773 454.2839,670.73475 z M 397.20593,696.09078 C 390.55914,704.47964 386.0116,714.32491 383.90852,724.76037 C 388.56955,725.6612 393.30963,726.22822 398.08962,726.43159 C 398.56362,715.84125 401.3952,705.4976 406.26633,696.15615 C 403.23324,696.34486 400.20374,696.31822 397.20593,696.09078 z M 444.54351,680.85362 C 440.58663,684.16945 436.1876,687.05523 431.37738,689.42748 L 443.42136,717.19289 C 455.09708,711.65812 465.17476,704.04037 473.39383,694.99118 C 465.04181,688.03018 455.11673,683.19305 444.54351,680.85362 z M 411.62465,695.59231 C 406.18979,704.9969 403.04282,715.60968 402.55087,726.51713 C 414.83413,726.46616 427.30391,724.05341 439.31516,719.01997 L 427.28241,691.28033 C 422.14814,693.39687 416.89462,694.82629 411.62465,695.59231 z M 488.26893,682.52248 C 485.71563,686.73589 482.8452,690.77029 479.68044,694.59108 C 486.48506,701.03014 492.12076,708.90666 496.07408,718.02037 C 496.8909,719.90359 497.62438,721.80133 498.26772,723.7127 C 502.81143,719.03646 506.98434,714.0653 510.76443,708.8313 C 505.52001,697.89091 497.66317,688.98486 488.26893,682.52248 z M 383.16449,729.18578 C 381.66044,740.47161 382.9975,752.268 387.59895,763.51269 C 394.00714,764.21641 400.49175,764.47019 407.00208,764.23528 C 405.8872,762.22317 404.8602,760.14458 403.92638,757.99174 C 400.10138,749.17379 398.2004,739.99758 398.03371,730.9259 C 393.02269,730.71726 388.05175,730.12681 383.16449,729.18578 z M 476.73548,697.96581 C 468.09668,707.49627 457.49722,715.51191 445.20974,721.31583 L 458.46645,751.87711 C 472.16769,745.54059 484.30538,737.1732 494.68365,727.27279 C 493.92942,724.7621 493.01977,722.2725 491.95111,719.8088 C 488.27,711.32254 483.04223,703.98076 476.73548,697.96581 z M 402.48935,730.99857 C 402.67457,739.4458 404.47175,747.99099 408.0364,756.20891 C 409.2089,758.91186 410.54012,761.49574 412.01126,763.96066 C 426.23277,762.91018 440.51648,759.56246 454.36034,753.70419 L 441.10361,723.1429 C 428.49612,728.43383 415.39387,730.96192 402.48935,730.99857 z M 512.81551,713.55978 C 508.83635,718.8573 504.468,723.89259 499.71836,728.60983 C 502.82205,740.60784 502.65102,752.91004 499.66169,764.44095 C 505.50529,760.2128 511.02621,755.65077 516.19313,750.77921 C 518.54349,738.67113 517.59099,725.80806 512.81551,713.55978 z M 389.73853,768.23344 C 395.61109,779.96434 404.52858,789.29109 415.0973,795.67302 C 422.05414,795.11581 429.01579,794.11673 435.95565,792.65677 C 425.487,787.08211 416.35636,778.92556 409.63247,768.60532 C 402.96464,768.96364 396.31641,768.83108 389.73853,768.23344 z M 495.96847,732.21119 C 485.62506,741.73507 473.66743,749.82432 460.2605,756.01295 L 471.1196,781.04692 C 479.11108,777.3964 486.6845,773.21152 493.80419,768.51262 C 493.80641,768.5063 493.80932,768.50042 493.81155,768.49411 C 497.7662,757.02294 498.6578,744.4924 495.96847,732.21119 z M 414.78518,768.23787 C 421.98314,778.44264 431.76224,786.2168 442.82338,791.05546 C 450.96466,788.97839 459.04196,786.24852 467.0079,782.86111 L 456.14878,757.82714 C 442.62723,763.55329 428.68891,766.96596 414.78518,768.23787 z M 514.16042,758.65692 C 508.90982,763.22327 503.35028,767.50182 497.48133,771.44885 C 493.75386,781.51719 487.78576,790.77016 479.92394,798.41474 C 496.79726,790.07259 508.74403,775.46248 514.16042,758.65692 z M 422.25793,799.44046 C 438.0143,806.54835 456.43666,807.60949 473.68802,801.11974 C 462.92606,801.63203 452.28921,799.75009 442.53046,795.74445 C 435.79714,797.40052 429.02849,798.62439 422.25793,799.44046 z M 490.85381,775.68618 C 485.1315,779.1627 479.14825,782.33827 472.91362,785.18273 L 477.1388,794.92318 C 482.85117,789.3016 487.46675,782.77467 490.85381,775.68618 z M 450.01797,793.73655 C 457.38476,796.01486 465.16274,797.04995 473.02142,796.72447 L 468.79627,786.98405 C 462.596,789.62196 456.33191,791.87614 450.01797,793.73655 z "
     style="fill:#990000;fill-opacity:1;stroke:none;stroke-width:1;stroke-linecap:round;stroke-linejoin:round;stroke-miterlimit:4;stroke-dasharray:none;stroke-opacity:1"
     id="path2862" />
  <path
     d="M 396.25938,645.51763 C 412.10734,636.4636 430.45297,631.28842 449.99997,631.28842 C 509.92055,631.28842 558.55173,679.9196 558.55173,739.84014 C 558.55173,799.76068 509.92055,848.39187 449.99997,848.39187 C 390.07946,848.39187 341.44827,799.76068 341.44827,739.84014 M 341.44827,739.84014 C 341.44827,719.51631 347.04298,700.49121 356.77527,684.22198"
     style="fill:none;fill-opacity:1;stroke:#990000;stroke-width:16.06466484;stroke-linecap:round;stroke-linejoin:round;stroke-miterlimit:4;stroke-dasharray:none;stroke-opacity:1"
     id="path7781" />
  <path
     style="fill:#990000;fill-opacity:1;fill-rule:evenodd;stroke:none;stroke-width:100;stroke-linecap:butt;stroke-linejoin:miter;stroke-miterlimit:4;stroke-dasharray:none;stroke-opacity:1"
     d="M 458.19395,3.09375 L 334.50645,239.09375 L 335.00645,239.09375 C 350.22919,214.27704 372.75631,194.38191 399.56895,182.4375 C 399.62694,185.33456 399.74719,188.26811 399.9127,191.25 C 402.31193,234.47483 421.47739,288.2882 471.69395,341.875 C 526.89398,400.77974 590.21544,416.23417 639.5377,443.625 C 673.20922,462.32428 704.80631,484.92679 735.4752,531.78125 L 821.31895,482.21875 C 779.51608,418.38131 732.32582,380.77919 688.1002,356.21875 C 625.35539,321.37378 578.15314,309.20688 544.6627,273.46875 C 507.29398,233.59207 500.96094,207.38771 499.75645,185.6875 C 499.57229,182.36971 499.64133,179.23578 499.8502,176.15625 C 534.11014,186.48245 563.04369,209.19882 581.38145,239.09375 L 581.88145,239.09375 L 458.19395,3.09375 z "
     id="path3941" />
  <path
     style="fill:#339966;fill-opacity:1;stroke:none;stroke-width:38.75680542;stroke-opacity:1"
     d="M 450 396.6875 L 400.625 463.3125 L 430.625 463.3125 L 430.625 570.6875 C 436.9316 570.08827 443.3766 569.75 450 569.75 C 456.62409 569.75 463.06968 570.07954 469.375 570.6875 L 469.375 463.3125 L 499.375 463.3125 L 450 396.6875 z M 208.875 496.59375 L 221.09375 578.625 L 242.3125 557.40625 L 308.46875 623.5625 C 318.48781 615.60641 329.23114 607.96753 340.78125 601.0625 L 269.6875 530 L 290.9375 508.78125 L 208.875 496.59375 z M 691.125 496.59375 L 609.09375 508.78125 L 630.3125 530 L 558.96875 601.34375 C 570.47545 608.29163 581.17706 615.98977 591.15625 623.96875 L 657.71875 557.40625 L 678.9375 578.625 L 691.125 496.59375 z M 175.625 688.3125 L 109 737.71875 L 175.625 787.09375 L 175.625 757.09375 L 202.75 757.09375 C 197.56375 752.16621 194.56248 745.28352 194.5625 738 C 194.5625 730.42963 197.84969 723.28783 203.40625 718.34375 L 175.625 718.34375 L 175.625 688.3125 z M 724.375 688.3125 L 724.375 718.34375 L 696.625 718.34375 C 702.16572 723.28719 705.43743 730.42673 705.4375 738 C 705.4375 745.28182 702.41483 752.1679 697.25 757.09375 L 724.375 757.09375 L 724.375 787.09375 L 791 737.71875 L 724.375 688.3125 z M 591.5 851.8125 C 581.54165 859.79573 570.85845 867.50345 559.375 874.46875 L 630.3125 945.4375 L 609.125 966.625 L 691.125 978.84375 L 678.96875 896.78125 L 657.71875 918.03125 L 591.5 851.8125 z M 308.09375 852.21875 L 242.3125 918.03125 L 221.0625 896.78125 L 208.875 978.84375 L 290.90625 966.625 L 269.6875 945.4375 L 340.34375 874.75 C 328.81628 867.82831 318.09243 860.1804 308.09375 852.21875 z M 430.625 905.375 L 430.625 1012.0625 L 400.625 1012.0625 L 450 1078.6875 L 499.375 1012.0625 L 469.375 1012.0625 L 469.375 905.375 C 463.07696 905.98208 456.6161 906.3125 450 906.3125 C 443.3766 906.3125 436.9316 905.97423 430.625 905.375 z "
     id="line5177" />
  <path
     d="M 449.98803,580.0329 C 387.80603,580.0329 340.67142,608.94956 303.4697,641.01646 C 266.26798,673.08333 237.04789,708.45206 212.17364,724.51925 C 207.59274,727.47884 204.8346,732.54829 204.8346,738.00208 C 204.83458,743.45585 207.59274,748.54922 212.17364,751.50883 C 237.04789,767.57602 266.26798,802.96862 303.4697,835.03551 C 340.67142,867.10242 387.80603,896.01909 449.98803,896.01909 C 512.26451,896.01909 559.41699,866.51683 596.5781,834.22271 C 633.73919,801.92862 663.01223,766.65788 687.46774,751.72397 C 692.24436,748.80564 695.1654,743.59964 695.1654,738.00208 C 695.16536,732.40452 692.24436,727.22243 687.46774,724.3041 C 663.01223,709.37021 633.73919,674.09944 596.5781,641.80536 C 559.41699,609.51125 512.26452,580.0329 449.98803,580.0329 z M 449.98803,612.44908 C 519.13931,612.44908 575.56494,668.87473 575.56494,738.02598 C 575.56495,807.17726 519.13931,863.60289 449.98803,863.60289 C 381.52437,863.60292 325.63747,808.26638 324.53065,740.05797 C 324.52556,739.74415 324.48562,739.44003 324.48286,739.12566 C 324.466,738.84427 324.42861,738.55735 324.43503,738.19332 C 324.42857,737.85052 324.44472,737.50785 324.45894,737.16537 C 324.46015,736.9882 324.48092,736.81647 324.48286,736.63945 C 324.48572,736.59972 324.47969,736.55965 324.48286,736.51993 C 324.75303,713.63843 331.12385,692.10257 342.14921,673.6717 C 346.92274,665.68816 357.52155,663.01738 365.5051,667.79091 C 373.48868,672.56444 376.15946,683.16326 371.38593,691.14681 C 363.17939,704.86553 358.47682,720.81986 358.47682,738.02598 C 358.47682,788.75037 399.26624,829.56112 449.98803,829.5611 C 500.70986,829.5611 541.52317,788.7478 541.52313,738.02598 C 541.52313,687.30419 500.70986,646.49087 449.98803,646.49087 C 433.44346,646.49087 418.05167,650.85603 404.68665,658.49156 C 396.61144,663.09609 386.06867,660.23224 381.45024,652.13263 C 376.83183,644.03304 379.72348,633.50674 387.80918,628.89623 C 406.14972,618.41816 427.43456,612.44908 449.98803,612.44908 z M 449.98803,666.59561 C 489.4075,666.59561 521.41841,698.6065 521.41841,738.02598 C 521.4184,777.44547 489.40751,809.43245 449.98803,809.43245 C 410.56856,809.43244 378.58156,777.44547 378.58156,738.02598 C 378.58156,698.6065 410.56856,666.59561 449.98803,666.59561 z "
     style="fill:#006499;fill-opacity:1;fill-rule:evenodd;stroke:none;stroke-width:42;stroke-linecap:round;stroke-linejoin:round;stroke-miterlimit:4;stroke-dasharray:none;stroke-opacity:1"
     id="path7774" />
</svg>
